<svg xmlns="http://www.w3.org/2000/svg" viewBox="0 0 226.61 66.3"><defs><style>.cls-1{fill:#fff;}</style></defs><title>logorash</title><g id="Capa_2" data-name="Capa 2"><g id="Capa_1-2" data-name="Capa 1"><polygon class="cls-1" points="76.2 0.01 48.64 66.3 64.12 66.3 81.45 20.87 99.02 66.3 114.76 66.3 87.03 0.01 76.2 0.01"/><rect class="cls-1" x="212.53" width="14.08" height="66.21"/><polygon class="cls-1" points="187.69 0.01 179.38 0.01 173.64 13.82 173.64 14.01 173.61 14.01 173.61 66.22 187.69 66.22 187.69 39.3 207.42 39.3 207.42 26.07 187.69 26.07 187.69 0.01"/><path class="cls-1" d="M126,14h42.11L173.67.56V0h-47a18.44,18.44,0,0,0-7.5,1.51,18.08,18.08,0,0,0-6,4.23,20.1,20.1,0,0,0-4,6.46,22,22,0,0,0-1.49,8.1,23.22,23.22,0,0,0,1.2,7.4A19.54,19.54,0,0,0,112.32,34a17.21,17.21,0,0,0,5.51,4.37A15.88,15.88,0,0,0,125.11,40l20.25,0a4,4,0,0,1,3.53,2,7.86,7.86,0,0,1,1.31,4.41,5.21,5.21,0,0,1-.46,2.06,7.5,7.5,0,0,1-1.12,1.9,6.12,6.12,0,0,1-1.52,1.36,3.19,3.19,0,0,1-1.77.47H114.4l5.81,14H149a11.62,11.62,0,0,0,6.54-1.89,17.93,17.93,0,0,0,4.92-4.83,24.23,24.23,0,0,0,3.15-6.46,22.16,22.16,0,0,0-.17-14.47,19.91,19.91,0,0,0-3.73-6.42A18.18,18.18,0,0,0,154,27.8a16.73,16.73,0,0,0-7.39-1.65l-20.75,0a2.08,2.08,0,0,1-1.26-.55,6,6,0,0,1-1.22-1.42,9.59,9.59,0,0,1-.9-1.85,5.64,5.64,0,0,1-.35-2,9.78,9.78,0,0,1,1-4.29A3,3,0,0,1,126,14Z"/><polygon class="cls-1" points="173.64 13.82 173.56 14.01 173.61 14.01 173.64 14.01 173.64 13.82"/><path class="cls-1" d="M54.08,21A19.88,19.88,0,0,0,46.16,4.81C41,.57,34.83,0,30,0H0V66.3H14.11V13.54H29.84c4.9,0,10.13,2.24,10.13,8.52,0,5.33-3.79,8.52-10.13,8.52H17v4.3L38.75,66.3h4.19l4.83-11.11-2-2.66L38.29,42.18a19,19,0,0,0,9.37-5.13C51.56,33.41,54.08,27.13,54.08,21Z"/></g></g></svg>